# 3ds Max Wavefront OBJ Exporter v0.97b - (c)2007 guruware
# File Created: 14.02.2018 18:15:18

#
# object Box009
#

v  -42.2872 197.6397 6.4417
v  -42.2872 178.8471 6.4417
v  171.3055 178.8471 6.4418
v  171.3056 205.5456 6.1121
v  -42.2872 0.3425 6.4417
v  -42.2872 0.3425 -2.4133
v  171.3056 -7.1652 -2.0834
v  171.3056 -7.1652 6.1121
v  171.3056 19.1703 -2.4132
v  171.3056 19.1703 6.4418
v  171.3056 205.5456 -2.0834
v  -42.2872 197.6397 -2.4133
v  171.3055 178.8471 -2.4132
v  -42.2872 19.1703 -2.4133
v  -42.2872 178.8471 -2.4133
v  -42.2872 19.1703 6.4417
v  -55.6229 178.8471 6.4417
v  -55.6229 19.1703 6.4417
v  -55.6229 178.8471 -2.2823
v  -55.6229 19.1703 -2.2823
# 20 vertices

vn -0.5865 0.5655 0.5798
vn -0.3015 0.3015 0.9045
vn 0.7057 0.0044 0.7085
vn 0.5685 0.5922 0.5711
vn -0.5860 -0.5661 0.5797
vn -0.5860 -0.5661 -0.5797
vn 0.5690 -0.5916 -0.5711
vn 0.5690 -0.5916 0.5711
vn 0.7057 -0.0044 -0.7085
vn 0.7057 -0.0044 0.7085
vn 0.5685 0.5922 -0.5711
vn -0.5865 0.5655 -0.5798
vn 0.7057 0.0044 -0.7085
vn -0.3044 -0.2995 -0.9042
vn -0.3044 0.2995 -0.9042
vn -0.3015 -0.3015 0.9045
vn -0.5774 0.5774 0.5774
vn -0.5774 -0.5774 0.5774
vn -0.5799 0.5779 -0.5743
vn -0.5799 -0.5779 -0.5743
# 20 vertex normals

vt 1.0000 0.0000 0.0000
vt -12.8053 0.0000 0.0000
vt -12.8053 213.5928 0.0000
vt 1.0000 213.5928 0.0000
vt 0.0000 0.0000 0.0000
vt 0.0000 -5.6111 0.0000
vt 213.5928 -5.6111 0.0000
vt 213.5928 0.0000 0.0000
vt 13.5796 -5.6111 0.0000
vt 13.5796 0.0000 0.0000
vt 13.8053 213.5928 0.0000
vt 170.9169 213.5928 0.0000
vt 170.9169 0.0000 0.0000
vt 13.8053 0.0000 0.0000
vt 170.6912 -5.6111 0.0000
vt 184.4965 -5.6111 0.0000
vt 184.4965 0.0000 0.0000
vt 170.6912 0.0000 0.0000
vt -169.9169 0.0000 0.0000
vt -183.4965 0.0000 0.0000
vt -183.4965 213.5928 0.0000
vt -169.9169 213.5928 0.0000
vt 184.4965 213.5928 0.0000
vt 13.8053 -5.6111 0.0000
vt 170.9169 -5.6111 0.0000
vt 0.0000 213.5928 0.0000
# 26 texture coords

o Box009
g Box009
s 2
f 1/1/1 2/2/2 3/3/3 4/4/4 
s 16
f 5/5/5 6/6/6 7/7/7 8/8/8 
s 32
f 8/5/8 7/6/7 9/9/9 10/10/10 
s 64
f 4/5/4 11/6/11 12/7/12 1/8/1 
s 4
f 13/11/13 9/12/9 14/13/14 15/14/15 
s 32
f 13/15/13 11/16/11 4/17/4 3/18/3 
f 9/9/9 13/15/13 3/18/3 10/10/10 
s 2
f 16/19/16 5/20/5 8/21/8 10/22/10 
s 4
f 9/12/9 7/23/7 6/17/6 14/13/14 
s off
f 16/13/16 2/14/2 17/14/17 18/13/18 
f 2/14/2 15/24/15 19/24/19 17/14/17 
f 15/24/15 14/25/14 20/25/20 19/24/19 
f 14/25/14 16/13/16 18/13/18 20/25/20 
s 4
f 11/26/11 13/11/13 15/14/15 12/5/12 
s 8
f 6/16/6 5/17/5 16/13/16 14/25/14 
s 2
f 16/19/16 10/22/10 3/3/3 2/2/2 
s 8
f 20/25/20 18/13/18 17/14/17 19/24/19 
f 15/24/15 2/14/2 1/5/1 12/6/12 
# 18 polygons

